<?xml version="1.0" encoding="UTF-8" standalone="no"?>
<!DOCTYPE svg PUBLIC "-//W3C//DTD SVG 1.1//EN"
 "http://www.w3.org/Graphics/SVG/1.1/DTD/svg11.dtd">
<!-- Generated by graphviz version 5.0.0 (20220707.1540)
 -->
<!-- Title: dependencies Pages: 1 -->
<svg width="1102pt" height="315pt"
 viewBox="0.00 0.00 1102.00 314.80" xmlns="http://www.w3.org/2000/svg" xmlns:xlink="http://www.w3.org/1999/xlink">
<g id="graph0" class="graph" transform="scale(1 1) rotate(0) translate(4 310.8)">
<title>dependencies</title>
<polygon fill="white" stroke="transparent" points="-4,4 -4,-310.8 1098,-310.8 1098,4 -4,4"/>
<text text-anchor="middle" x="547" y="-8.2" font-family="sans-serif" font-size="14.00">dependencies</text>
<g id="clust1" class="cluster">
<title>cluster_AppModule</title>
<polygon fill="none" stroke="black" stroke-dasharray="1,5" points="347,-108.8 347,-298.8 922,-298.8 922,-108.8 347,-108.8"/>
</g>
<g id="clust3" class="cluster">
<title>cluster_AppModule_imports</title>
<polygon fill="none" stroke="black" points="493,-116.8 493,-233.8 914,-233.8 914,-116.8 493,-116.8"/>
</g>
<g id="clust6" class="cluster">
<title>cluster_AppModule_providers</title>
<polygon fill="none" stroke="black" points="355,-181.8 355,-233.8 485,-233.8 485,-181.8 355,-181.8"/>
</g>
<g id="clust7" class="cluster">
<title>cluster_ArticleModule</title>
<polygon fill="none" stroke="black" stroke-dasharray="1,5" points="658,-32.8 658,-100.8 1086,-100.8 1086,-32.8 658,-32.8"/>
</g>
<g id="clust12" class="cluster">
<title>cluster_ArticleModule_providers</title>
<polygon fill="none" stroke="black" points="666,-40.8 666,-92.8 1078,-92.8 1078,-40.8 666,-40.8"/>
</g>
<g id="clust13" class="cluster">
<title>cluster_AuthModule</title>
<polygon fill="none" stroke="black" stroke-dasharray="1,5" points="8,-32.8 8,-100.8 650,-100.8 650,-32.8 8,-32.8"/>
</g>
<g id="clust16" class="cluster">
<title>cluster_AuthModule_exports</title>
<polygon fill="none" stroke="black" points="432,-40.8 432,-92.8 642,-92.8 642,-40.8 432,-40.8"/>
</g>
<g id="clust18" class="cluster">
<title>cluster_AuthModule_providers</title>
<polygon fill="none" stroke="black" points="16,-40.8 16,-92.8 424,-92.8 424,-40.8 16,-40.8"/>
</g>
<g id="clust19" class="cluster">
<title>cluster_CaslModule</title>
<polygon fill="none" stroke="black" stroke-dasharray="1,5" points="219,-173.8 219,-241.8 339,-241.8 339,-173.8 219,-173.8"/>
</g>
<g id="clust22" class="cluster">
<title>cluster_CaslModule_exports</title>
<polygon fill="none" stroke="black" points="227,-181.8 227,-233.8 331,-233.8 331,-181.8 227,-181.8"/>
</g>
<!-- ArticleModule -->
<g id="node1" class="node">
<title>ArticleModule</title>
<polygon fill="#8dd3c7" stroke="black" points="804.42,-160.8 801.42,-164.8 780.42,-164.8 777.42,-160.8 705.58,-160.8 705.58,-124.8 804.42,-124.8 804.42,-160.8"/>
<text text-anchor="middle" x="755" y="-138.6" font-family="Times,serif" font-size="14.00">ArticleModule</text>
</g>
<!-- AppModule -->
<g id="node6" class="node">
<title>AppModule</title>
<polygon fill="#8dd3c7" stroke="black" points="677.66,-290.8 674.66,-294.8 653.66,-294.8 650.66,-290.8 594.34,-290.8 594.34,-254.8 677.66,-254.8 677.66,-290.8"/>
<text text-anchor="middle" x="636" y="-268.6" font-family="Times,serif" font-size="14.00">AppModule</text>
</g>
<!-- ArticleModule&#45;&gt;AppModule -->
<g id="edge1" class="edge">
<title>ArticleModule&#45;&gt;AppModule</title>
<path fill="none" stroke="black" d="M790.46,-160.83C790.46,-195.22 790.46,-266.8 790.46,-266.8 790.46,-266.8 687.8,-266.8 687.8,-266.8"/>
<polygon fill="black" stroke="black" points="687.8,-263.3 677.8,-266.8 687.8,-270.3 687.8,-263.3"/>
</g>
<!-- AuthModule -->
<g id="node2" class="node">
<title>AuthModule</title>
<polygon fill="#8dd3c7" stroke="black" points="588.55,-160.8 585.55,-164.8 564.55,-164.8 561.55,-160.8 501.45,-160.8 501.45,-124.8 588.55,-124.8 588.55,-160.8"/>
<text text-anchor="middle" x="545" y="-138.6" font-family="Times,serif" font-size="14.00">AuthModule</text>
</g>
<!-- UsersModule -->
<g id="node5" class="node">
<title>UsersModule</title>
<polygon fill="#8dd3c7" stroke="black" points="776.94,-225.8 773.94,-229.8 752.94,-229.8 749.94,-225.8 685.06,-225.8 685.06,-189.8 776.94,-189.8 776.94,-225.8"/>
<text text-anchor="middle" x="731" y="-203.6" font-family="Times,serif" font-size="14.00">UsersModule</text>
</g>
<!-- AuthModule&#45;&gt;UsersModule -->
<g id="edge18" class="edge">
<title>AuthModule&#45;&gt;UsersModule</title>
<path fill="none" stroke="black" d="M545,-160.83C545,-177.2 545,-198.8 545,-198.8 545,-198.8 675.02,-198.8 675.02,-198.8"/>
<polygon fill="black" stroke="black" points="675.02,-202.3 685.02,-198.8 675.02,-195.3 675.02,-202.3"/>
</g>
<!-- AuthModule&#45;&gt;AppModule -->
<g id="edge2" class="edge">
<title>AuthModule&#45;&gt;AppModule</title>
<path fill="none" stroke="black" d="M588.71,-142.8C596.55,-142.8 602.28,-142.8 602.28,-142.8 602.28,-142.8 602.28,-244.72 602.28,-244.72"/>
<polygon fill="black" stroke="black" points="598.78,-244.72 602.28,-254.72 605.78,-244.72 598.78,-244.72"/>
</g>
<!-- AuthService  -->
<g id="node11" class="node">
<title>AuthService </title>
<polygon fill="#fb8072" stroke="black" points="633.98,-84.8 544.02,-84.8 544.02,-48.8 633.98,-48.8 633.98,-84.8"/>
<text text-anchor="middle" x="589" y="-62.6" font-family="Times,serif" font-size="14.00">AuthService </text>
</g>
<!-- AuthModule&#45;&gt;AuthService  -->
<g id="edge10" class="edge">
<title>AuthModule&#45;&gt;AuthService </title>
<path fill="none" stroke="black" stroke-dasharray="5,2" d="M566.52,-124.79C566.52,-124.79 566.52,-94.95 566.52,-94.95"/>
<polygon fill="black" stroke="black" points="570.02,-94.95 566.52,-84.95 563.02,-94.95 570.02,-94.95"/>
</g>
<!-- JwtStrategy  -->
<g id="node12" class="node">
<title>JwtStrategy </title>
<polygon fill="#fb8072" stroke="black" points="525.6,-84.8 440.4,-84.8 440.4,-48.8 525.6,-48.8 525.6,-84.8"/>
<text text-anchor="middle" x="483" y="-62.6" font-family="Times,serif" font-size="14.00">JwtStrategy </text>
</g>
<!-- AuthModule&#45;&gt;JwtStrategy  -->
<g id="edge11" class="edge">
<title>AuthModule&#45;&gt;JwtStrategy </title>
<path fill="none" stroke="black" stroke-dasharray="5,2" d="M513.51,-124.79C513.51,-124.79 513.51,-94.95 513.51,-94.95"/>
<polygon fill="black" stroke="black" points="517.01,-94.95 513.51,-84.95 510.01,-94.95 517.01,-94.95"/>
</g>
<!-- CaslModule -->
<g id="node3" class="node">
<title>CaslModule</title>
<polygon fill="#8dd3c7" stroke="black" points="906.44,-160.8 903.44,-164.8 882.44,-164.8 879.44,-160.8 821.56,-160.8 821.56,-124.8 906.44,-124.8 906.44,-160.8"/>
<text text-anchor="middle" x="864" y="-138.6" font-family="Times,serif" font-size="14.00">CaslModule</text>
</g>
<!-- CaslModule&#45;&gt;AppModule -->
<g id="edge3" class="edge">
<title>CaslModule&#45;&gt;AppModule</title>
<path fill="none" stroke="black" d="M878.07,-160.86C878.07,-197.85 878.07,-278.8 878.07,-278.8 878.07,-278.8 687.89,-278.8 687.89,-278.8"/>
<polygon fill="black" stroke="black" points="687.89,-275.3 677.89,-278.8 687.89,-282.3 687.89,-275.3"/>
</g>
<!-- CaslFactory  -->
<g id="node16" class="node">
<title>CaslFactory </title>
<polygon fill="#fb8072" stroke="black" points="322.66,-225.8 235.34,-225.8 235.34,-189.8 322.66,-189.8 322.66,-225.8"/>
<text text-anchor="middle" x="279" y="-203.6" font-family="Times,serif" font-size="14.00">CaslFactory </text>
</g>
<!-- CaslModule&#45;&gt;CaslFactory  -->
<g id="edge15" class="edge">
<title>CaslModule&#45;&gt;CaslFactory </title>
<path fill="none" stroke="black" stroke-dasharray="5,2" d="M849.93,-160.84C849.93,-168.55 849.93,-175.8 849.93,-175.8 849.93,-175.8 310.14,-175.8 310.14,-175.8 310.14,-175.8 310.14,-179.56 310.14,-179.56"/>
<polygon fill="black" stroke="black" points="306.64,-179.56 310.14,-189.56 313.64,-179.56 306.64,-179.56"/>
</g>
<!-- TagModule -->
<g id="node4" class="node">
<title>TagModule</title>
<polygon fill="#8dd3c7" stroke="black" points="687.82,-160.8 684.82,-164.8 663.82,-164.8 660.82,-160.8 606.18,-160.8 606.18,-124.8 687.82,-124.8 687.82,-160.8"/>
<text text-anchor="middle" x="647" y="-138.6" font-family="Times,serif" font-size="14.00">TagModule</text>
</g>
<!-- TagModule&#45;&gt;AppModule -->
<g id="edge4" class="edge">
<title>TagModule&#45;&gt;AppModule</title>
<path fill="none" stroke="black" d="M630.17,-160.88C630.17,-160.88 630.17,-244.46 630.17,-244.46"/>
<polygon fill="black" stroke="black" points="626.67,-244.46 630.17,-254.46 633.67,-244.46 626.67,-244.46"/>
</g>
<!-- UsersModule&#45;&gt;AppModule -->
<g id="edge5" class="edge">
<title>UsersModule&#45;&gt;AppModule</title>
<path fill="none" stroke="black" d="M684.88,-216.8C668.48,-216.8 654,-216.8 654,-216.8 654,-216.8 654,-244.77 654,-244.77"/>
<polygon fill="black" stroke="black" points="650.5,-244.77 654,-254.77 657.5,-244.77 650.5,-244.77"/>
</g>
<!-- AppService -->
<g id="node7" class="node">
<title>AppService</title>
<ellipse fill="#fdb462" stroke="black" cx="420" cy="-207.8" rx="56.75" ry="18"/>
<text text-anchor="middle" x="420" y="-203.6" font-family="Times,serif" font-size="14.00">AppService</text>
</g>
<!-- AppService&#45;&gt;AppModule -->
<g id="edge6" class="edge">
<title>AppService&#45;&gt;AppModule</title>
<path fill="none" stroke="black" d="M476.88,-207.8C529.04,-207.8 598.23,-207.8 598.23,-207.8 598.23,-207.8 598.23,-244.69 598.23,-244.69"/>
<polygon fill="black" stroke="black" points="594.73,-244.69 598.23,-254.69 601.73,-244.69 594.73,-244.69"/>
</g>
<!-- ArticleService -->
<g id="node8" class="node">
<title>ArticleService</title>
<ellipse fill="#fdb462" stroke="black" cx="869" cy="-66.8" rx="66.61" ry="18"/>
<text text-anchor="middle" x="869" y="-62.6" font-family="Times,serif" font-size="14.00">ArticleService</text>
</g>
<!-- ArticleService&#45;&gt;ArticleModule -->
<g id="edge7" class="edge">
<title>ArticleService&#45;&gt;ArticleModule</title>
<path fill="none" stroke="black" d="M812.99,-76.74C812.99,-97.34 812.99,-142.8 812.99,-142.8 812.99,-142.8 812.14,-142.8 812.14,-142.8"/>
<polygon fill="black" stroke="black" points="814.44,-139.3 804.44,-142.8 814.44,-146.3 814.44,-139.3"/>
</g>
<!-- CaslFactory -->
<g id="node9" class="node">
<title>CaslFactory</title>
<ellipse fill="#fdb462" stroke="black" cx="1012" cy="-66.8" rx="57.91" ry="18"/>
<text text-anchor="middle" x="1012" y="-62.6" font-family="Times,serif" font-size="14.00">CaslFactory</text>
</g>
<!-- CaslFactory&#45;&gt;ArticleModule -->
<g id="edge8" class="edge">
<title>CaslFactory&#45;&gt;ArticleModule</title>
<path fill="none" stroke="black" d="M983.15,-82.54C983.15,-95.52 983.15,-111.8 983.15,-111.8 983.15,-111.8 793.1,-111.8 793.1,-111.8 793.1,-111.8 793.1,-114.77 793.1,-114.77"/>
<polygon fill="black" stroke="black" points="789.6,-114.77 793.1,-124.77 796.6,-114.77 789.6,-114.77"/>
</g>
<!-- CaslFactory&#45;&gt;CaslModule -->
<g id="edge16" class="edge">
<title>CaslFactory&#45;&gt;CaslModule</title>
<path fill="none" stroke="black" d="M1012,-84.81C1012,-107.29 1012,-142.8 1012,-142.8 1012,-142.8 916.41,-142.8 916.41,-142.8"/>
<polygon fill="black" stroke="black" points="916.41,-139.3 906.41,-142.8 916.41,-146.3 916.41,-139.3"/>
</g>
<!-- CaslFactory&#45;&gt;UsersModule -->
<g id="edge19" class="edge">
<title>CaslFactory&#45;&gt;UsersModule</title>
<path fill="none" stroke="black" d="M1040.85,-82.43C1040.85,-119.14 1040.85,-207.8 1040.85,-207.8 1040.85,-207.8 786.72,-207.8 786.72,-207.8"/>
<polygon fill="black" stroke="black" points="786.72,-204.3 776.72,-207.8 786.72,-211.3 786.72,-204.3"/>
</g>
<!-- TagService -->
<g id="node10" class="node">
<title>TagService</title>
<ellipse fill="#fdb462" stroke="black" cx="729" cy="-66.8" rx="55.01" ry="18"/>
<text text-anchor="middle" x="729" y="-62.6" font-family="Times,serif" font-size="14.00">TagService</text>
</g>
<!-- TagService&#45;&gt;ArticleModule -->
<g id="edge9" class="edge">
<title>TagService&#45;&gt;ArticleModule</title>
<path fill="none" stroke="black" d="M744.9,-84.05C744.9,-84.05 744.9,-114.56 744.9,-114.56"/>
<polygon fill="black" stroke="black" points="741.4,-114.56 744.9,-124.56 748.4,-114.56 741.4,-114.56"/>
</g>
<!-- TagService&#45;&gt;TagModule -->
<g id="edge17" class="edge">
<title>TagService&#45;&gt;TagModule</title>
<path fill="none" stroke="black" d="M680.83,-75.52C680.83,-75.52 680.83,-114.68 680.83,-114.68"/>
<polygon fill="black" stroke="black" points="677.33,-114.68 680.83,-124.68 684.33,-114.68 677.33,-114.68"/>
</g>
<!-- AuthService -->
<g id="node13" class="node">
<title>AuthService</title>
<ellipse fill="#fdb462" stroke="black" cx="357" cy="-66.8" rx="59.11" ry="18"/>
<text text-anchor="middle" x="357" y="-62.6" font-family="Times,serif" font-size="14.00">AuthService</text>
</g>
<!-- AuthService&#45;&gt;AuthModule -->
<g id="edge12" class="edge">
<title>AuthService&#45;&gt;AuthModule</title>
<path fill="none" stroke="black" d="M389.84,-82C389.84,-101.77 389.84,-133.8 389.84,-133.8 389.84,-133.8 491.37,-133.8 491.37,-133.8"/>
<polygon fill="black" stroke="black" points="491.37,-137.3 501.37,-133.8 491.37,-130.3 491.37,-137.3"/>
</g>
<!-- JwtStrategy -->
<g id="node14" class="node">
<title>JwtStrategy</title>
<ellipse fill="#fdb462" stroke="black" cx="223" cy="-66.8" rx="56.77" ry="18"/>
<text text-anchor="middle" x="223" y="-62.6" font-family="Times,serif" font-size="14.00">JwtStrategy</text>
</g>
<!-- JwtStrategy&#45;&gt;AuthModule -->
<g id="edge13" class="edge">
<title>JwtStrategy&#45;&gt;AuthModule</title>
<path fill="none" stroke="black" d="M257.53,-81.1C257.53,-103.11 257.53,-142.8 257.53,-142.8 257.53,-142.8 491.34,-142.8 491.34,-142.8"/>
<polygon fill="black" stroke="black" points="491.34,-146.3 501.34,-142.8 491.34,-139.3 491.34,-146.3"/>
</g>
<!-- UsersService -->
<g id="node15" class="node">
<title>UsersService</title>
<ellipse fill="#fdb462" stroke="black" cx="86" cy="-66.8" rx="61.97" ry="18"/>
<text text-anchor="middle" x="86" y="-62.6" font-family="Times,serif" font-size="14.00">UsersService</text>
</g>
<!-- UsersService&#45;&gt;AuthModule -->
<g id="edge14" class="edge">
<title>UsersService&#45;&gt;AuthModule</title>
<path fill="none" stroke="black" d="M106.66,-84C106.66,-108.84 106.66,-151.8 106.66,-151.8 106.66,-151.8 491.37,-151.8 491.37,-151.8"/>
<polygon fill="black" stroke="black" points="491.37,-155.3 501.37,-151.8 491.37,-148.3 491.37,-155.3"/>
</g>
<!-- UsersService&#45;&gt;UsersModule -->
<g id="edge20" class="edge">
<title>UsersService&#45;&gt;UsersModule</title>
<path fill="none" stroke="black" d="M65.34,-83.92C65.34,-91.53 65.34,-98.8 65.34,-98.8 65.34,-98.8 696.72,-98.8 696.72,-98.8 696.72,-98.8 696.72,-179.31 696.72,-179.31"/>
<polygon fill="black" stroke="black" points="693.22,-179.31 696.72,-189.31 700.22,-179.31 693.22,-179.31"/>
</g>
</g>
</svg>
