<?xml version="1.0" encoding="UTF-8" standalone="no"?>
<!DOCTYPE svg PUBLIC "-//W3C//DTD SVG 1.1//EN"
 "http://www.w3.org/Graphics/SVG/1.1/DTD/svg11.dtd">
<!-- Generated by graphviz version 5.0.0 (20220707.1540)
 -->
<!-- Title: dependencies Pages: 1 -->
<svg width="824pt" height="174pt"
 viewBox="0.00 0.00 824.00 173.80" xmlns="http://www.w3.org/2000/svg" xmlns:xlink="http://www.w3.org/1999/xlink">
<g id="graph0" class="graph" transform="scale(1 1) rotate(0) translate(4 169.8)">
<title>dependencies</title>
<polygon fill="white" stroke="transparent" points="-4,4 -4,-169.8 820,-169.8 820,4 -4,4"/>
<text text-anchor="middle" x="408" y="-8.2" font-family="sans-serif" font-size="14.00">dependencies</text>
<g id="clust1" class="cluster">
<title>cluster_AppModule</title>
<polygon fill="none" stroke="black" stroke-dasharray="1,5" points="8,-32.8 8,-157.8 808,-157.8 808,-32.8 8,-32.8"/>
</g>
<g id="clust3" class="cluster">
<title>cluster_AppModule_imports</title>
<polygon fill="none" stroke="black" points="154,-40.8 154,-92.8 800,-92.8 800,-40.8 154,-40.8"/>
</g>
<g id="clust6" class="cluster">
<title>cluster_AppModule_providers</title>
<polygon fill="none" stroke="black" points="16,-40.8 16,-92.8 146,-92.8 146,-40.8 16,-40.8"/>
</g>
<!-- ArticleModule -->
<g id="node1" class="node">
<title>ArticleModule</title>
<polygon fill="#8dd3c7" stroke="black" points="792.42,-84.8 789.42,-88.8 768.42,-88.8 765.42,-84.8 693.58,-84.8 693.58,-48.8 792.42,-48.8 792.42,-84.8"/>
<text text-anchor="middle" x="743" y="-62.6" font-family="Times,serif" font-size="14.00">ArticleModule</text>
</g>
<!-- AppModule -->
<g id="node7" class="node">
<title>AppModule</title>
<polygon fill="#8dd3c7" stroke="black" points="460.66,-149.8 457.66,-153.8 436.66,-153.8 433.66,-149.8 377.34,-149.8 377.34,-113.8 460.66,-113.8 460.66,-149.8"/>
<text text-anchor="middle" x="419" y="-127.6" font-family="Times,serif" font-size="14.00">AppModule</text>
</g>
<!-- ArticleModule&#45;&gt;AppModule -->
<g id="edge1" class="edge">
<title>ArticleModule&#45;&gt;AppModule</title>
<path fill="none" stroke="black" d="M743,-85.09C743,-107.01 743,-140.8 743,-140.8 743,-140.8 470.69,-140.8 470.69,-140.8"/>
<polygon fill="black" stroke="black" points="470.69,-137.3 460.69,-140.8 470.69,-144.3 470.69,-137.3"/>
</g>
<!-- AuthModule -->
<g id="node2" class="node">
<title>AuthModule</title>
<polygon fill="#8dd3c7" stroke="black" points="675.55,-84.8 672.55,-88.8 651.55,-88.8 648.55,-84.8 588.45,-84.8 588.45,-48.8 675.55,-48.8 675.55,-84.8"/>
<text text-anchor="middle" x="632" y="-62.6" font-family="Times,serif" font-size="14.00">AuthModule</text>
</g>
<!-- AuthModule&#45;&gt;AppModule -->
<g id="edge2" class="edge">
<title>AuthModule&#45;&gt;AppModule</title>
<path fill="none" stroke="black" d="M632,-84.91C632,-104.14 632,-131.8 632,-131.8 632,-131.8 470.83,-131.8 470.83,-131.8"/>
<polygon fill="black" stroke="black" points="470.83,-128.3 460.83,-131.8 470.83,-135.3 470.83,-128.3"/>
</g>
<!-- CaslModule -->
<g id="node3" class="node">
<title>CaslModule</title>
<polygon fill="#8dd3c7" stroke="black" points="570.44,-84.8 567.44,-88.8 546.44,-88.8 543.44,-84.8 485.56,-84.8 485.56,-48.8 570.44,-48.8 570.44,-84.8"/>
<text text-anchor="middle" x="528" y="-62.6" font-family="Times,serif" font-size="14.00">CaslModule</text>
</g>
<!-- CaslModule&#45;&gt;AppModule -->
<g id="edge3" class="edge">
<title>CaslModule&#45;&gt;AppModule</title>
<path fill="none" stroke="black" d="M528,-84.83C528,-101.2 528,-122.8 528,-122.8 528,-122.8 470.83,-122.8 470.83,-122.8"/>
<polygon fill="black" stroke="black" points="470.83,-119.3 460.83,-122.8 470.83,-126.3 470.83,-119.3"/>
</g>
<!-- ProfileModule -->
<g id="node4" class="node">
<title>ProfileModule</title>
<polygon fill="#8dd3c7" stroke="black" points="467.66,-84.8 464.66,-88.8 443.66,-88.8 440.66,-84.8 370.34,-84.8 370.34,-48.8 467.66,-48.8 467.66,-84.8"/>
<text text-anchor="middle" x="419" y="-62.6" font-family="Times,serif" font-size="14.00">ProfileModule</text>
</g>
<!-- ProfileModule&#45;&gt;AppModule -->
<g id="edge4" class="edge">
<title>ProfileModule&#45;&gt;AppModule</title>
<path fill="none" stroke="black" d="M419,-84.91C419,-84.91 419,-103.79 419,-103.79"/>
<polygon fill="black" stroke="black" points="415.5,-103.79 419,-113.79 422.5,-103.79 415.5,-103.79"/>
</g>
<!-- TagModule -->
<g id="node5" class="node">
<title>TagModule</title>
<polygon fill="#8dd3c7" stroke="black" points="352.82,-84.8 349.82,-88.8 328.82,-88.8 325.82,-84.8 271.18,-84.8 271.18,-48.8 352.82,-48.8 352.82,-84.8"/>
<text text-anchor="middle" x="312" y="-62.6" font-family="Times,serif" font-size="14.00">TagModule</text>
</g>
<!-- TagModule&#45;&gt;AppModule -->
<g id="edge5" class="edge">
<title>TagModule&#45;&gt;AppModule</title>
<path fill="none" stroke="black" d="M312,-84.83C312,-101.2 312,-122.8 312,-122.8 312,-122.8 367.32,-122.8 367.32,-122.8"/>
<polygon fill="black" stroke="black" points="367.32,-126.3 377.32,-122.8 367.32,-119.3 367.32,-126.3"/>
</g>
<!-- UsersModule -->
<g id="node6" class="node">
<title>UsersModule</title>
<polygon fill="#8dd3c7" stroke="black" points="253.94,-84.8 250.94,-88.8 229.94,-88.8 226.94,-84.8 162.06,-84.8 162.06,-48.8 253.94,-48.8 253.94,-84.8"/>
<text text-anchor="middle" x="208" y="-62.6" font-family="Times,serif" font-size="14.00">UsersModule</text>
</g>
<!-- UsersModule&#45;&gt;AppModule -->
<g id="edge6" class="edge">
<title>UsersModule&#45;&gt;AppModule</title>
<path fill="none" stroke="black" d="M208,-84.91C208,-104.14 208,-131.8 208,-131.8 208,-131.8 367.31,-131.8 367.31,-131.8"/>
<polygon fill="black" stroke="black" points="367.31,-135.3 377.31,-131.8 367.31,-128.3 367.31,-135.3"/>
</g>
<!-- AppService -->
<g id="node8" class="node">
<title>AppService</title>
<ellipse fill="#fdb462" stroke="black" cx="81" cy="-66.8" rx="56.75" ry="18"/>
<text text-anchor="middle" x="81" y="-62.6" font-family="Times,serif" font-size="14.00">AppService</text>
</g>
<!-- AppService&#45;&gt;AppModule -->
<g id="edge7" class="edge">
<title>AppService&#45;&gt;AppModule</title>
<path fill="none" stroke="black" d="M81,-85.09C81,-107.01 81,-140.8 81,-140.8 81,-140.8 367.22,-140.8 367.22,-140.8"/>
<polygon fill="black" stroke="black" points="367.22,-144.3 377.22,-140.8 367.22,-137.3 367.22,-144.3"/>
</g>
</g>
</svg>
