<?xml version="1.0" encoding="UTF-8" standalone="no"?>
<!DOCTYPE svg PUBLIC "-//W3C//DTD SVG 1.1//EN"
 "http://www.w3.org/Graphics/SVG/1.1/DTD/svg11.dtd">
<!-- Generated by graphviz version 5.0.0 (20220707.1540)
 -->
<!-- Title: dependencies Pages: 1 -->
<svg width="709pt" height="174pt"
 viewBox="0.00 0.00 709.00 173.80" xmlns="http://www.w3.org/2000/svg" xmlns:xlink="http://www.w3.org/1999/xlink">
<g id="graph0" class="graph" transform="scale(1 1) rotate(0) translate(4 169.8)">
<title>dependencies</title>
<polygon fill="white" stroke="transparent" points="-4,4 -4,-169.8 705,-169.8 705,4 -4,4"/>
<text text-anchor="middle" x="350.5" y="-8.2" font-family="sans-serif" font-size="14.00">dependencies</text>
<g id="clust1" class="cluster">
<title>cluster_AppModule</title>
<polygon fill="none" stroke="black" stroke-dasharray="1,5" points="8,-32.8 8,-157.8 693,-157.8 693,-32.8 8,-32.8"/>
</g>
<g id="clust6" class="cluster">
<title>cluster_AppModule_providers</title>
<polygon fill="none" stroke="black" points="555,-40.8 555,-92.8 685,-92.8 685,-40.8 555,-40.8"/>
</g>
<g id="clust3" class="cluster">
<title>cluster_AppModule_imports</title>
<polygon fill="none" stroke="black" points="16,-40.8 16,-92.8 547,-92.8 547,-40.8 16,-40.8"/>
</g>
<!-- ArticleModule -->
<g id="node1" class="node">
<title>ArticleModule</title>
<polygon fill="#8dd3c7" stroke="black" points="539.42,-84.8 536.42,-88.8 515.42,-88.8 512.42,-84.8 440.58,-84.8 440.58,-48.8 539.42,-48.8 539.42,-84.8"/>
<text text-anchor="middle" x="490" y="-62.6" font-family="Times,serif" font-size="14.00">ArticleModule</text>
</g>
<!-- AppModule -->
<g id="node6" class="node">
<title>AppModule</title>
<polygon fill="#8dd3c7" stroke="black" points="368.66,-149.8 365.66,-153.8 344.66,-153.8 341.66,-149.8 285.34,-149.8 285.34,-113.8 368.66,-113.8 368.66,-149.8"/>
<text text-anchor="middle" x="327" y="-127.6" font-family="Times,serif" font-size="14.00">AppModule</text>
</g>
<!-- ArticleModule&#45;&gt;AppModule -->
<g id="edge1" class="edge">
<title>ArticleModule&#45;&gt;AppModule</title>
<path fill="none" stroke="black" d="M490,-84.82C490,-102.17 490,-125.8 490,-125.8 490,-125.8 378.98,-125.8 378.98,-125.8"/>
<polygon fill="black" stroke="black" points="378.98,-122.3 368.98,-125.8 378.98,-129.3 378.98,-122.3"/>
</g>
<!-- AuthModule -->
<g id="node2" class="node">
<title>AuthModule</title>
<polygon fill="#8dd3c7" stroke="black" points="422.55,-84.8 419.55,-88.8 398.55,-88.8 395.55,-84.8 335.45,-84.8 335.45,-48.8 422.55,-48.8 422.55,-84.8"/>
<text text-anchor="middle" x="379" y="-62.6" font-family="Times,serif" font-size="14.00">AuthModule</text>
</g>
<!-- AuthModule&#45;&gt;AppModule -->
<g id="edge2" class="edge">
<title>AuthModule&#45;&gt;AppModule</title>
<path fill="none" stroke="black" d="M352.03,-84.91C352.03,-84.91 352.03,-103.79 352.03,-103.79"/>
<polygon fill="black" stroke="black" points="348.53,-103.79 352.03,-113.79 355.53,-103.79 348.53,-103.79"/>
</g>
<!-- CaslModule -->
<g id="node3" class="node">
<title>CaslModule</title>
<polygon fill="#8dd3c7" stroke="black" points="317.44,-84.8 314.44,-88.8 293.44,-88.8 290.44,-84.8 232.56,-84.8 232.56,-48.8 317.44,-48.8 317.44,-84.8"/>
<text text-anchor="middle" x="275" y="-62.6" font-family="Times,serif" font-size="14.00">CaslModule</text>
</g>
<!-- CaslModule&#45;&gt;AppModule -->
<g id="edge3" class="edge">
<title>CaslModule&#45;&gt;AppModule</title>
<path fill="none" stroke="black" d="M301.19,-84.91C301.19,-84.91 301.19,-103.79 301.19,-103.79"/>
<polygon fill="black" stroke="black" points="297.69,-103.79 301.19,-113.79 304.69,-103.79 297.69,-103.79"/>
</g>
<!-- TagModule -->
<g id="node4" class="node">
<title>TagModule</title>
<polygon fill="#8dd3c7" stroke="black" points="214.82,-84.8 211.82,-88.8 190.82,-88.8 187.82,-84.8 133.18,-84.8 133.18,-48.8 214.82,-48.8 214.82,-84.8"/>
<text text-anchor="middle" x="174" y="-62.6" font-family="Times,serif" font-size="14.00">TagModule</text>
</g>
<!-- TagModule&#45;&gt;AppModule -->
<g id="edge4" class="edge">
<title>TagModule&#45;&gt;AppModule</title>
<path fill="none" stroke="black" d="M174,-84.82C174,-102.17 174,-125.8 174,-125.8 174,-125.8 275.19,-125.8 275.19,-125.8"/>
<polygon fill="black" stroke="black" points="275.19,-129.3 285.19,-125.8 275.19,-122.3 275.19,-129.3"/>
</g>
<!-- UsersModule -->
<g id="node5" class="node">
<title>UsersModule</title>
<polygon fill="#8dd3c7" stroke="black" points="115.94,-84.8 112.94,-88.8 91.94,-88.8 88.94,-84.8 24.06,-84.8 24.06,-48.8 115.94,-48.8 115.94,-84.8"/>
<text text-anchor="middle" x="70" y="-62.6" font-family="Times,serif" font-size="14.00">UsersModule</text>
</g>
<!-- UsersModule&#45;&gt;AppModule -->
<g id="edge5" class="edge">
<title>UsersModule&#45;&gt;AppModule</title>
<path fill="none" stroke="black" d="M70,-85.08C70,-106.12 70,-137.8 70,-137.8 70,-137.8 275.14,-137.8 275.14,-137.8"/>
<polygon fill="black" stroke="black" points="275.14,-141.3 285.14,-137.8 275.14,-134.3 275.14,-141.3"/>
</g>
<!-- AppService -->
<g id="node7" class="node">
<title>AppService</title>
<ellipse fill="#fdb462" stroke="black" cx="620" cy="-66.8" rx="56.75" ry="18"/>
<text text-anchor="middle" x="620" y="-62.6" font-family="Times,serif" font-size="14.00">AppService</text>
</g>
<!-- AppService&#45;&gt;AppModule -->
<g id="edge6" class="edge">
<title>AppService&#45;&gt;AppModule</title>
<path fill="none" stroke="black" d="M620,-85.08C620,-106.12 620,-137.8 620,-137.8 620,-137.8 378.67,-137.8 378.67,-137.8"/>
<polygon fill="black" stroke="black" points="378.67,-134.3 368.67,-137.8 378.67,-141.3 378.67,-134.3"/>
</g>
</g>
</svg>
