<?xml version="1.0" encoding="UTF-8" standalone="no"?>
<!DOCTYPE svg PUBLIC "-//W3C//DTD SVG 1.1//EN"
 "http://www.w3.org/Graphics/SVG/1.1/DTD/svg11.dtd">
<!-- Generated by graphviz version 2.47.0 (20210316.0004)
 -->
<!-- Title: dependencies Pages: 1 -->
<svg width="504pt" height="211pt"
 viewBox="0.00 0.00 504.00 211.00" xmlns="http://www.w3.org/2000/svg" xmlns:xlink="http://www.w3.org/1999/xlink">
<g id="graph0" class="graph" transform="scale(1 1) rotate(0) translate(4 207)">
<title>dependencies</title>
<polygon fill="white" stroke="transparent" points="-4,4 -4,-207 500,-207 500,4 -4,4"/>
<text text-anchor="start" x="227.01" y="-42.4" font-family="Times-12" font-weight="bold" font-size="14.00">Legend</text>
<polygon fill="#ffffb3" stroke="transparent" points="14,-10 14,-30 34,-30 34,-10 14,-10"/>
<text text-anchor="start" x="37.63" y="-15.4" font-family="Times-12" font-size="14.00"> &#160;Declarations</text>
<polygon fill="#8dd3c7" stroke="transparent" points="127,-10 127,-30 147,-30 147,-10 127,-10"/>
<text text-anchor="start" x="150.73" y="-15.4" font-family="Times-12" font-size="14.00"> &#160;Module</text>
<polygon fill="#80b1d3" stroke="transparent" points="213,-10 213,-30 233,-30 233,-10 213,-10"/>
<text text-anchor="start" x="236.78" y="-15.4" font-family="Times-12" font-size="14.00"> &#160;Bootstrap</text>
<polygon fill="#fdb462" stroke="transparent" points="310,-10 310,-30 330,-30 330,-10 310,-10"/>
<text text-anchor="start" x="333.67" y="-15.4" font-family="Times-12" font-size="14.00"> &#160;Providers</text>
<polygon fill="#fb8072" stroke="transparent" points="406,-10 406,-30 426,-30 426,-10 406,-10"/>
<text text-anchor="start" x="429.73" y="-15.4" font-family="Times-12" font-size="14.00"> &#160;Exports</text>
<g id="clust1" class="cluster">
<title>cluster_ArticleModule</title>
<polygon fill="none" stroke="black" stroke-dasharray="1,5" points="34,-70 34,-195 462,-195 462,-70 34,-70"/>
</g>
<g id="clust6" class="cluster">
<title>cluster_ArticleModule_providers</title>
<polygon fill="none" stroke="black" points="42,-78 42,-130 454,-130 454,-78 42,-78"/>
</g>
<!-- ArticleService -->
<g id="node1" class="node">
<title>ArticleService</title>
<ellipse fill="#fdb462" stroke="black" cx="379" cy="-104" rx="66.61" ry="18"/>
<text text-anchor="middle" x="379" y="-99.8" font-family="Times,serif" font-size="14.00">ArticleService</text>
</g>
<!-- ArticleModule -->
<g id="node4" class="node">
<title>ArticleModule</title>
<polygon fill="#8dd3c7" stroke="black" points="285.42,-187 282.42,-191 261.42,-191 258.42,-187 186.58,-187 186.58,-151 285.42,-151 285.42,-187"/>
<text text-anchor="middle" x="236" y="-164.8" font-family="Times,serif" font-size="14.00">ArticleModule</text>
</g>
<!-- ArticleService&#45;&gt;ArticleModule -->
<g id="edge1" class="edge">
<title>ArticleService&#45;&gt;ArticleModule</title>
<path fill="none" stroke="black" d="M379,-122.11C379,-141.34 379,-169 379,-169 379,-169 295.21,-169 295.21,-169"/>
<polygon fill="black" stroke="black" points="295.21,-165.5 285.21,-169 295.21,-172.5 295.21,-165.5"/>
</g>
<!-- CaslFactory -->
<g id="node2" class="node">
<title>CaslFactory</title>
<ellipse fill="#fdb462" stroke="black" cx="236" cy="-104" rx="57.9" ry="18"/>
<text text-anchor="middle" x="236" y="-99.8" font-family="Times,serif" font-size="14.00">CaslFactory</text>
</g>
<!-- CaslFactory&#45;&gt;ArticleModule -->
<g id="edge2" class="edge">
<title>CaslFactory&#45;&gt;ArticleModule</title>
<path fill="none" stroke="black" d="M236,-122.11C236,-122.11 236,-140.99 236,-140.99"/>
<polygon fill="black" stroke="black" points="232.5,-140.99 236,-150.99 239.5,-140.99 232.5,-140.99"/>
</g>
<!-- TagService -->
<g id="node3" class="node">
<title>TagService</title>
<ellipse fill="#fdb462" stroke="black" cx="105" cy="-104" rx="55.01" ry="18"/>
<text text-anchor="middle" x="105" y="-99.8" font-family="Times,serif" font-size="14.00">TagService</text>
</g>
<!-- TagService&#45;&gt;ArticleModule -->
<g id="edge3" class="edge">
<title>TagService&#45;&gt;ArticleModule</title>
<path fill="none" stroke="black" d="M105,-122.11C105,-141.34 105,-169 105,-169 105,-169 176.47,-169 176.47,-169"/>
<polygon fill="black" stroke="black" points="176.47,-172.5 186.47,-169 176.47,-165.5 176.47,-172.5"/>
</g>
</g>
</svg>
