<?xml version="1.0" encoding="UTF-8" standalone="no"?>
<!DOCTYPE svg PUBLIC "-//W3C//DTD SVG 1.1//EN"
 "http://www.w3.org/Graphics/SVG/1.1/DTD/svg11.dtd">
<!-- Generated by graphviz version 5.0.0 (20220707.1540)
 -->
<!-- Title: dependencies Pages: 1 -->
<svg width="452pt" height="174pt"
 viewBox="0.00 0.00 452.00 173.80" xmlns="http://www.w3.org/2000/svg" xmlns:xlink="http://www.w3.org/1999/xlink">
<g id="graph0" class="graph" transform="scale(1 1) rotate(0) translate(4 169.8)">
<title>dependencies</title>
<polygon fill="white" stroke="transparent" points="-4,4 -4,-169.8 448,-169.8 448,4 -4,4"/>
<text text-anchor="middle" x="222" y="-8.2" font-family="sans-serif" font-size="14.00">dependencies</text>
<g id="clust1" class="cluster">
<title>cluster_ArticleModule</title>
<polygon fill="none" stroke="black" stroke-dasharray="1,5" points="8,-32.8 8,-157.8 436,-157.8 436,-32.8 8,-32.8"/>
</g>
<g id="clust6" class="cluster">
<title>cluster_ArticleModule_providers</title>
<polygon fill="none" stroke="black" points="16,-40.8 16,-92.8 428,-92.8 428,-40.8 16,-40.8"/>
</g>
<!-- ArticleService -->
<g id="node1" class="node">
<title>ArticleService</title>
<ellipse fill="#fdb462" stroke="black" cx="353" cy="-66.8" rx="66.61" ry="18"/>
<text text-anchor="middle" x="353" y="-62.6" font-family="Times,serif" font-size="14.00">ArticleService</text>
</g>
<!-- ArticleModule -->
<g id="node4" class="node">
<title>ArticleModule</title>
<polygon fill="#8dd3c7" stroke="black" points="259.42,-149.8 256.42,-153.8 235.42,-153.8 232.42,-149.8 160.58,-149.8 160.58,-113.8 259.42,-113.8 259.42,-149.8"/>
<text text-anchor="middle" x="210" y="-127.6" font-family="Times,serif" font-size="14.00">ArticleModule</text>
</g>
<!-- ArticleService&#45;&gt;ArticleModule -->
<g id="edge1" class="edge">
<title>ArticleService&#45;&gt;ArticleModule</title>
<path fill="none" stroke="black" d="M353,-84.91C353,-104.14 353,-131.8 353,-131.8 353,-131.8 269.21,-131.8 269.21,-131.8"/>
<polygon fill="black" stroke="black" points="269.21,-128.3 259.21,-131.8 269.21,-135.3 269.21,-128.3"/>
</g>
<!-- CaslFactory -->
<g id="node2" class="node">
<title>CaslFactory</title>
<ellipse fill="#fdb462" stroke="black" cx="210" cy="-66.8" rx="57.91" ry="18"/>
<text text-anchor="middle" x="210" y="-62.6" font-family="Times,serif" font-size="14.00">CaslFactory</text>
</g>
<!-- CaslFactory&#45;&gt;ArticleModule -->
<g id="edge2" class="edge">
<title>CaslFactory&#45;&gt;ArticleModule</title>
<path fill="none" stroke="black" d="M210,-84.91C210,-84.91 210,-103.79 210,-103.79"/>
<polygon fill="black" stroke="black" points="206.5,-103.79 210,-113.79 213.5,-103.79 206.5,-103.79"/>
</g>
<!-- TagService -->
<g id="node3" class="node">
<title>TagService</title>
<ellipse fill="#fdb462" stroke="black" cx="79" cy="-66.8" rx="55.01" ry="18"/>
<text text-anchor="middle" x="79" y="-62.6" font-family="Times,serif" font-size="14.00">TagService</text>
</g>
<!-- TagService&#45;&gt;ArticleModule -->
<g id="edge3" class="edge">
<title>TagService&#45;&gt;ArticleModule</title>
<path fill="none" stroke="black" d="M79,-84.91C79,-104.14 79,-131.8 79,-131.8 79,-131.8 150.47,-131.8 150.47,-131.8"/>
<polygon fill="black" stroke="black" points="150.47,-135.3 160.47,-131.8 150.47,-128.3 150.47,-135.3"/>
</g>
</g>
</svg>
