<?xml version="1.0" encoding="UTF-8" standalone="no"?>
<!DOCTYPE svg PUBLIC "-//W3C//DTD SVG 1.1//EN"
 "http://www.w3.org/Graphics/SVG/1.1/DTD/svg11.dtd">
<!-- Generated by graphviz version 5.0.0 (20220707.1540)
 -->
<!-- Title: dependencies Pages: 1 -->
<svg width="322pt" height="174pt"
 viewBox="0.00 0.00 322.00 173.80" xmlns="http://www.w3.org/2000/svg" xmlns:xlink="http://www.w3.org/1999/xlink">
<g id="graph0" class="graph" transform="scale(1 1) rotate(0) translate(4 169.8)">
<title>dependencies</title>
<polygon fill="white" stroke="transparent" points="-4,4 -4,-169.8 318,-169.8 318,4 -4,4"/>
<text text-anchor="middle" x="157" y="-8.2" font-family="sans-serif" font-size="14.00">dependencies</text>
<g id="clust1" class="cluster">
<title>cluster_ProfileModule</title>
<polygon fill="none" stroke="black" stroke-dasharray="1,5" points="8,-32.8 8,-157.8 306,-157.8 306,-32.8 8,-32.8"/>
</g>
<g id="clust6" class="cluster">
<title>cluster_ProfileModule_providers</title>
<polygon fill="none" stroke="black" points="16,-40.8 16,-92.8 298,-92.8 298,-40.8 16,-40.8"/>
</g>
<!-- CaslFactory -->
<g id="node1" class="node">
<title>CaslFactory</title>
<ellipse fill="#fdb462" stroke="black" cx="232" cy="-66.8" rx="57.91" ry="18"/>
<text text-anchor="middle" x="232" y="-62.6" font-family="Times,serif" font-size="14.00">CaslFactory</text>
</g>
<!-- ProfileModule -->
<g id="node3" class="node">
<title>ProfileModule</title>
<polygon fill="#8dd3c7" stroke="black" points="209.66,-149.8 206.66,-153.8 185.66,-153.8 182.66,-149.8 112.34,-149.8 112.34,-113.8 209.66,-113.8 209.66,-149.8"/>
<text text-anchor="middle" x="161" y="-127.6" font-family="Times,serif" font-size="14.00">ProfileModule</text>
</g>
<!-- CaslFactory&#45;&gt;ProfileModule -->
<g id="edge1" class="edge">
<title>CaslFactory&#45;&gt;ProfileModule</title>
<path fill="none" stroke="black" d="M192.06,-79.95C192.06,-79.95 192.06,-103.49 192.06,-103.49"/>
<polygon fill="black" stroke="black" points="188.56,-103.49 192.06,-113.49 195.56,-103.49 188.56,-103.49"/>
</g>
<!-- ProfileService -->
<g id="node2" class="node">
<title>ProfileService</title>
<ellipse fill="#fdb462" stroke="black" cx="90" cy="-66.8" rx="66.05" ry="18"/>
<text text-anchor="middle" x="90" y="-62.6" font-family="Times,serif" font-size="14.00">ProfileService</text>
</g>
<!-- ProfileService&#45;&gt;ProfileModule -->
<g id="edge2" class="edge">
<title>ProfileService&#45;&gt;ProfileModule</title>
<path fill="none" stroke="black" d="M134.22,-80.27C134.22,-80.27 134.22,-103.66 134.22,-103.66"/>
<polygon fill="black" stroke="black" points="130.72,-103.66 134.22,-113.66 137.72,-103.66 130.72,-103.66"/>
</g>
</g>
</svg>
